<?xml version="1.0" standalone="no"?>
<!DOCTYPE svg PUBLIC "-//W3C//DTD SVG 20010904//EN"
 "http://www.w3.org/TR/2001/REC-SVG-20010904/DTD/svg10.dtd">
<svg version="1.0" xmlns="http://www.w3.org/2000/svg"
 width="512.000000pt" height="512.000000pt" viewBox="0 0 512.000000 512.000000"
 preserveAspectRatio="xMidYMid meet">

<g transform="translate(0.000000,512.000000) scale(0.100000,-0.100000)"
fill="#000000" stroke="none">
<path d="M0 2560 l0 -2560 2560 0 2560 0 0 2560 0 2560 -2560 0 -2560 0 0
-2560z m4083 1669 c16 -19 17 -55 17 -429 l0 -409 -30 -21 c-24 -17 -41 -20
-91 -18 -89 4 -96 16 -114 198 -20 216 -40 275 -118 352 -51 52 -66 61 -148
87 -25 8 -193 11 -552 11 l-517 0 2 -607 3 -608 305 0 c334 0 354 3 416 58 62
54 89 128 103 285 5 57 15 110 22 118 15 19 142 20 157 1 8 -9 12 -192 13
-587 l1 -574 -22 -18 c-31 -25 -130 -25 -153 0 -10 11 -21 50 -26 97 -21 165
-51 235 -120 280 -73 49 -129 56 -425 53 l-271 -3 -3 -518 c-3 -599 -3 -597
77 -676 30 -30 62 -51 91 -60 83 -24 95 -33 98 -76 2 -24 -3 -48 -12 -60 -14
-20 -28 -20 -566 -23 -407 -2 -556 0 -566 9 -15 12 -19 86 -6 107 5 7 39 23
76 37 108 39 163 90 185 170 16 59 15 2489 -1 2553 -6 26 -21 62 -32 80 -29
46 -102 82 -165 82 -39 0 -53 4 -61 19 -14 28 -12 86 3 100 16 13 582 17 1682
13 726 -2 730 -3 748 -23z"/>
</g>
</svg>
